<svg id="ejwhM3lpy801" xmlns="http://www.w3.org/2000/svg" xmlns:xlink="http://www.w3.org/1999/xlink" viewBox="0 0 250 25" shape-rendering="geometricPrecision" text-rendering="geometricPrecision"><path d="M10.290141,12.499999q42.608009-9.952856,61.23446,0" transform="translate(0 0.000001)" fill="none" stroke="#dcdcdc" stroke-width="0.6"/><path d="M60.290141,12.499999q42.608009-9.952856,61.23446,0" transform="matrix(-1 0 0 1 300.151302 0.000001)" fill="none" stroke="#dcdcdc" stroke-width="0.6"/><path d="M63.142697,12.5Q70.441981,23.03624,125,12.499999" transform="translate(.000001 0.000001)" fill="none" stroke="#dcdcdc" stroke-width="0.6"/><path d="M113.142697,12.5Q120.441981,23.03624,175,12.499999" transform="matrix(-1 0 0 1 300 0.000001)" fill="none" stroke="#dcdcdc" stroke-width="0.6"/><path d="" fill="none" stroke="#dcdcdc" stroke-width="0.6"/><path d="M10.290141,12.5q-11.05489,2.88318-5.527445-4.80841" fill="none" stroke="#dcdcdc" stroke-width="0.6"/><path d="M10.290141,12.5q-11.05489,2.88318-5.527445-4.80841" transform="matrix(-1 0 0 1 250.151302 0)" fill="none" stroke="#dcdcdc" stroke-width="0.6"/><path d="M40.907371,7.69159c0,2.404205-12.283568,9.51887-25.132064,9.51887" fill="none" stroke="#dcdcdc" stroke-width="0.6"/><path d="M40.907371,7.69159c0,2.404205-12.283568,9.51887-25.132064,9.51887" transform="matrix(-1 0 0 1 250.151302-.000094)" fill="none" stroke="#dcdcdc" stroke-width="0.6"/></svg>
